<svg xmlns="http://www.w3.org/2000/svg" viewBox="0 0 146.99 43.54"><defs><style>.cls-1{fill:#7a0441;}</style></defs><title>premio-full</title><g id="Layer_2" data-name="Layer 2"><g id="premio-full"><path class="cls-1" d="M55.21,11.29a8.36,8.36,0,0,0-8.36,8.27h0V32.61h2.69v-13h0A5.67,5.67,0,0,1,55.21,14a5.58,5.58,0,0,1,2,.39V11.54a8.72,8.72,0,0,0-2-.25Z"/><polygon class="cls-1" points="120.95 32.62 118.26 32.62 118.26 11.92 120.95 11.92 120.95 32.62"/><path class="cls-1" d="M143.77,14.5A11,11,0,1,0,147,22.26a11,11,0,0,0-3.22-7.76Zm-1.9,13.63a8.28,8.28,0,1,1,2.43-5.86,8.23,8.23,0,0,1-2.43,5.86Z"/><path class="cls-1" d="M113.88,19.61A8.35,8.35,0,0,0,98.51,15.1a8.36,8.36,0,0,0-15.38,4.45h0V32.6h2.69v-13h0a5.67,5.67,0,1,1,11.34,0v13h2.69v-13h0a5.67,5.67,0,1,1,11.34,0v13h2.69v-13Z"/><path class="cls-1" d="M33,14a8.3,8.3,0,1,0,5.86,2.43A8.2,8.2,0,0,0,33,14Z"/><path class="cls-1" d="M33,11.29a11,11,0,0,1,10.33,7.29,21.76,21.76,0,1,0-21.52,25H22V22.27a11,11,0,0,1,11-11Z"/><path class="cls-1" d="M33,33.25A11,11,0,0,1,25.2,30c-.18-.18-.36-.38-.53-.57V43.35A21.78,21.78,0,0,0,42.93,26.87a11,11,0,0,1-10,6.38Z"/><path class="cls-1" d="M79.88,23c0-.23,0-.47,0-.71A11,11,0,0,0,61.18,14.5a11,11,0,0,0-3,5.78,10.88,10.88,0,0,0-.18,2c0,.24,0,.47,0,.71a11,11,0,0,0,21,3.79h-3a8,8,0,0,1-1.1,1.36A8.29,8.29,0,0,1,60.69,23Zm-19-2.69A8.29,8.29,0,0,1,74.78,16.4,8.16,8.16,0,0,1,77,20.28Z"/></g></g></svg>